<svg xmlns="http://www.w3.org/2000/svg" x="0px" y="0px"
width="15" height="15"
viewBox="0 0 226 226"
style=" fill:#000000;"><g fill="none" fill-rule="nonzero" stroke="none" stroke-width="1" stroke-linecap="butt" stroke-linejoin="miter" stroke-miterlimit="10" stroke-dasharray="" stroke-dashoffset="0" font-family="none" font-weight="none" font-size="none" text-anchor="none" style="mix-blend-mode: normal"><path d="M0,226v-226h226v226z" fill="none"></path><g fill="#215732"><path d="M203.32937,58.61875c-2.40125,0.07062 -4.66125,1.05938 -6.32094,2.78969l-84.00844,84.00844l-84.00844,-84.00844c-1.71266,-1.74797 -4.04328,-2.73672 -6.4975,-2.73672c-3.6725,0 -6.97422,2.24234 -8.35141,5.65c-1.39484,3.40766 -0.565,7.30969 2.06578,9.86984l90.4,90.4c3.53125,3.53125 9.25187,3.53125 12.78312,0l90.4,-90.4c2.68375,-2.57781 3.53125,-6.55047 2.08344,-9.99344c-1.43016,-3.44297 -4.82016,-5.65 -8.54563,-5.57937z"></path></g></g></svg>