<svg class="u-inline-block c-icon--instagram" version="1.1" xmlns="http://www.w3.org/2000/svg" xmlns:xlink="http://www.w3.org/1999/xlink" x="0px" y="0px" viewBox="0 0 23.9 23.9">						<path d="M11.9,2.2c3.2,0,3.6,0,4.8,0.1c1.2,0.1,1.8,0.2,2.2,0.4c0.6,0.2,1,0.5,1.4,0.9c0.4,0.4,0.7,0.8,0.9,1.4 c0.2,0.4,0.4,1.1,0.4,2.2c0.1,1.3,0.1,1.6,0.1,4.8s0,3.6-0.1,4.8c-0.1,1.2-0.2,1.8-0.4,2.2c-0.2,0.6-0.5,1-0.9,1.4 c-0.4,0.4-0.8,0.7-1.4,0.9c-0.4,0.2-1.1,0.4-2.2,0.4c-1.3,0.1-1.6,0.1-4.8,0.1s-3.6,0-4.8-0.1c-1.2-0.1-1.8-0.2-2.2-0.4 c-0.6-0.2-1-0.5-1.4-0.9c-0.4-0.4-0.7-0.8-0.9-1.4c-0.2-0.4-0.4-1.1-0.4-2.2c-0.1-1.3-0.1-1.6-0.1-4.8s0-3.6,0.1-4.8 c0.1-1.2,0.2-1.8,0.4-2.2c0.2-0.6,0.5-1,0.9-1.4c0.4-0.4,0.8-0.7,1.4-0.9c0.4-0.2,1.1-0.4,2.2-0.4C8.4,2.2,8.7,2.2,11.9,2.2 	M11.9,0C8.7,0,8.3,0,7,0.1C5.7,0.1,4.9,0.3,4.1,0.6C3.3,0.9,2.7,1.3,2,2C1.3,2.7,0.9,3.3,0.6,4.1C0.3,4.9,0.1,5.7,0.1,7 C0,8.3,0,8.7,0,11.9c0,3.2,0,3.6,0.1,4.9c0.1,1.3,0.3,2.1,0.6,2.9c0.3,0.8,0.7,1.5,1.4,2.1c0.7,0.7,1.3,1.1,2.1,1.4 c0.8,0.3,1.6,0.5,2.9,0.6c1.3,0.1,1.7,0.1,4.9,0.1s3.6,0,4.9-0.1c1.3-0.1,2.1-0.3,2.9-0.6c0.8-0.3,1.5-0.7,2.1-1.4 c0.7-0.7,1.1-1.3,1.4-2.1c0.3-0.8,0.5-1.6,0.6-2.9c0.1-1.3,0.1-1.7,0.1-4.9s0-3.6-0.1-4.9c-0.1-1.3-0.3-2.1-0.6-2.9 c-0.3-0.8-0.7-1.5-1.4-2.1c-0.7-0.7-1.3-1.1-2.1-1.4c-0.8-0.3-1.6-0.5-2.9-0.6C15.6,0,15.2,0,11.9,0L11.9,0z"></path>						<path d="M11.9,5.8c-3.4,0-6.1,2.7-6.1,6.1s2.7,6.1,6.1,6.1s6.1-2.7,6.1-6.1S15.3,5.8,11.9,5.8z M11.9,15.9c-2.2,0-4-1.8-4-4 s1.8-4,4-4c2.2,0,4,1.8,4,4S14.1,15.9,11.9,15.9z"></path>						<circle cx="18.3" cy="5.6" r="1.4"></circle></svg>